<?xml version="1.0" encoding="UTF-8" standalone="no"?>
<!-- Created with Inkscape (http://www.inkscape.org/) -->

<svg
   width="210mm"
   height="297mm"
   viewBox="0 0 210 297"
   version="1.1"
   id="svg5"
   inkscape:version="1.1.2 (b8e25be833, 2022-02-05)"
   sodipodi:docname="logo-brut.svg"
   xmlns:inkscape="http://www.inkscape.org/namespaces/inkscape"
   xmlns:sodipodi="http://sodipodi.sourceforge.net/DTD/sodipodi-0.dtd"
   xmlns="http://www.w3.org/2000/svg"
   xmlns:svg="http://www.w3.org/2000/svg">
  <sodipodi:namedview
     id="namedview7"
     pagecolor="#ffffff"
     bordercolor="#999999"
     borderopacity="1"
     inkscape:pageshadow="0"
     inkscape:pageopacity="0"
     inkscape:pagecheckerboard="0"
     inkscape:document-units="mm"
     showgrid="false"
     inkscape:zoom="0.50898197"
     inkscape:cx="113.95296"
     inkscape:cy="706.31186"
     inkscape:window-width="1920"
     inkscape:window-height="1001"
     inkscape:window-x="-9"
     inkscape:window-y="-9"
     inkscape:window-maximized="1"
     inkscape:current-layer="layer1" />
  <defs
     id="defs2">
    <clipPath
       clipPathUnits="userSpaceOnUse"
       id="clipPath30851">
      <g
         inkscape:label="Clip"
         id="use30853"
         transform="translate(-1.418576e-5)">
        <path
           d="m 207.03057,-3.3830995 50.1325,-0.2106509 -4.04554,18.3615534 0.005,0.05007 c 0,0.139855 -0.0386,0.278846 -0.10689,0.415248 l -0.0322,0.141582 -0.0515,-8.74e-4 c -1.38792,2.014082 -10.1878,3.566297 -20.84126,3.566297 -11.61429,0 -21.03205,-1.845738 -21.03205,-4.122263 l 0.006,-0.0846 -4.0342,-18.116376"
           style="fill:#1b2d3e;fill-opacity:1;fill-rule:evenodd;stroke:none;stroke-width:0.140036"
           id="path30862"
           transform="matrix(0,-0.61432006,0.61432006,0,83.071957,257.37986)" />
        <path
           d="m 232.08999,10.501076 c 13.80862,0 25.07083,-6.1876343 25.07083,-13.7767994 0,-7.5868926 -11.26221,-13.7745196 -25.07083,-13.7745196 -13.80855,0 -25.07307,6.187627 -25.07307,13.7745196 0,7.5891651 11.26452,13.7767994 25.07307,13.7767994"
           style="fill:#1b2d3e;fill-opacity:1;fill-rule:evenodd;stroke:none;stroke-width:0.227153"
           id="path30864"
           transform="matrix(0,-0.61432006,0.61432006,0,83.071957,257.37986)" />
        <path
           d="m 232.08999,7.5753511 c 11.5848,0 21.03205,-4.8746902 21.03205,-10.8510745 0,-5.9763779 -9.44725,-10.8465286 -21.03205,-10.8465286 -11.58247,0 -21.03204,4.8701507 -21.03204,10.8465286 0,5.9763843 9.44957,10.8510745 21.03204,10.8510745"
           style="fill:#99c6dc;fill-opacity:1;fill-rule:evenodd;stroke:none;stroke-width:0.227153"
           id="path30866"
           transform="matrix(0,-0.61432006,0.61432006,0,83.071957,257.37986)" />
        <path
           d="m 149.72454,-3.3830995 50.13257,-0.2106509 -4.0456,18.3615534 0.005,0.05007 c 0,0.139855 -0.0386,0.278846 -0.10688,0.415248 l -0.0322,0.141582 -0.0515,-8.74e-4 c -1.38792,2.014082 -10.1878,3.566297 -20.839,3.566297 -11.61654,0 -21.03199,-1.845738 -21.03199,-4.122263 l 0.006,-0.0846 -4.0342,-18.116376"
           style="fill:#2f5371;fill-opacity:1;fill-rule:evenodd;stroke:none;stroke-width:0.140036"
           id="path30868"
           transform="matrix(0,-0.61432006,0.61432006,0,83.071957,257.37986)" />
        <path
           d="m 174.78397,10.501076 c 13.80862,0 25.07314,-6.1876343 25.07314,-13.7767994 0,-7.5868926 -11.26452,-13.7745196 -25.07314,-13.7745196 -13.80856,0 -25.07076,6.187627 -25.07076,13.7745196 0,7.5891651 11.2622,13.7767994 25.07076,13.7767994"
           style="fill:#2f5371;fill-opacity:1;fill-rule:evenodd;stroke:none;stroke-width:0.227153"
           id="path30870"
           transform="matrix(0,-0.61432006,0.61432006,0,83.071957,257.37986)" />
        <path
           d="m 174.78397,7.5753511 c 11.58254,0 21.03204,-4.8746902 21.03204,-10.8510745 0,-5.9763779 -9.4495,-10.8465286 -21.03204,-10.8465286 -11.58473,0 -21.03198,4.8701507 -21.03198,10.8465286 0,5.9763843 9.44725,10.8510745 21.03198,10.8510745"
           style="fill:#ace1e9;fill-opacity:1;fill-rule:evenodd;stroke:none;stroke-width:0.227153"
           id="path30872"
           transform="matrix(0,-0.61432006,0.61432006,0,83.071957,257.37986)" />
      </g>
    </clipPath>
  </defs>
  <g
     inkscape:label="Calque 1"
     inkscape:groupmode="layer"
     id="layer1">
    <rect
       style="opacity:1;fill:#ffffff;fill-opacity:1;stroke:#a02c2c;stroke-width:2.215;stroke-miterlimit:4;stroke-dasharray:13.29, 4.43;stroke-dashoffset:0;stroke-opacity:1"
       id="rect51186"
       width="174.14255"
       height="73.815651"
       x="0.5198285"
       y="112.80279"
       inkscape:export-filename="D:\Projects\DevoCular\static\assets\images\logo\text1533.png"
       inkscape:export-xdpi="96"
       inkscape:export-ydpi="96" />
    <text
       xml:space="preserve"
       style="font-style:normal;font-variant:normal;font-weight:normal;font-stretch:normal;font-size:37.1051px;line-height:1.25;font-family:'Cooper Black';-inkscape-font-specification:'Cooper Black, Normal';font-variant-ligatures:normal;font-variant-caps:normal;font-variant-numeric:normal;font-variant-east-asian:normal;fill:#a02c2c;stroke-width:0.927629"
       x="14.116096"
       y="139.88498"
       id="text1533"
       transform="scale(0.87028471,1.1490493)"
       inkscape:export-filename="D:\Projects\DevoCular\static\assets\images\logo\text1533.png"
       inkscape:export-xdpi="96"
       inkscape:export-ydpi="96"><tspan
         sodipodi:role="line"
         id="tspan1531"
         style="font-style:normal;font-variant:normal;font-weight:normal;font-stretch:normal;font-size:37.1051px;font-family:'Cooper Black';-inkscape-font-specification:'Cooper Black, Normal';font-variant-ligatures:normal;font-variant-caps:normal;font-variant-numeric:normal;font-variant-east-asian:normal;fill:#a02c2c;stroke-width:0.927629"
         x="14.116096"
         y="139.88498">D</tspan></text>
    <path
       d="m 12.024308,145.52549 -0.04368,-13.72571 3.807565,1.10763 0.01038,-0.001 c 0.029,0 0.05782,0.0106 0.08611,0.0293 l 0.02936,0.009 -1.81e-4,0.0141 c 0.417653,0.37999 0.739529,2.7893 0.739529,5.70609 0,3.17986 -0.382744,5.75833 -0.854818,5.75833 l -0.01754,-0.002 -3.756724,1.10452"
       style="fill:#a02c2c;fill-opacity:1;fill-rule:evenodd;stroke:none;stroke-width:0.0333669"
       id="path30496"
       inkscape:export-filename="D:\Projects\DevoCular\static\assets\images\logo\text1533.png"
       inkscape:export-xdpi="96"
       inkscape:export-ydpi="96" />
    <path
       d="m 14.903416,138.6645 c 0,-3.78064 -1.283106,-6.8641 -2.856842,-6.8641 -1.573265,0 -2.8563689,3.08346 -2.8563689,6.8641 0,3.78063 1.2831039,6.86472 2.8563689,6.86472 1.573736,0 2.856842,-3.08409 2.856842,-6.86472"
       style="fill:#a02c2c;fill-opacity:1;fill-rule:evenodd;stroke:none;stroke-width:0.0541248"
       id="path30498"
       inkscape:export-filename="D:\Projects\DevoCular\static\assets\images\logo\text1533.png"
       inkscape:export-xdpi="96"
       inkscape:export-ydpi="96" />
    <path
       d="m 14.29672,138.6645 c 0,-3.17178 -1.010846,-5.75833 -2.250146,-5.75833 -1.239298,0 -2.2492028,2.58655 -2.2492028,5.75833 0,3.17115 1.0099048,5.75834 2.2492028,5.75834 1.2393,0 2.250146,-2.58719 2.250146,-5.75834"
       style="fill:#800000;fill-opacity:1;fill-rule:evenodd;stroke:none;stroke-width:0.0541248"
       id="path30500"
       inkscape:export-filename="D:\Projects\DevoCular\static\assets\images\logo\text1533.png"
       inkscape:export-xdpi="96"
       inkscape:export-ydpi="96" />
    <path
       d="m 12.024308,161.21522 -0.04368,-13.72572 3.807565,1.10763 0.01038,-0.001 c 0.029,0 0.05782,0.0106 0.08611,0.0293 l 0.02936,0.009 -1.81e-4,0.0141 c 0.417653,0.37999 0.739529,2.7893 0.739529,5.70547 0,3.18048 -0.382744,5.75832 -0.854818,5.75832 l -0.01754,-0.002 -3.756724,1.10452"
       style="fill:#a02c2c;fill-opacity:1;fill-rule:evenodd;stroke:none;stroke-width:0.0333669"
       id="path30506"
       inkscape:export-filename="D:\Projects\DevoCular\static\assets\images\logo\text1533.png"
       inkscape:export-xdpi="96"
       inkscape:export-ydpi="96" />
    <path
       d="m 14.903416,154.35423 c 0,-3.78064 -1.283106,-6.86473 -2.856842,-6.86473 -1.573265,0 -2.8563689,3.08409 -2.8563689,6.86473 0,3.78063 1.2831039,6.86409 2.8563689,6.86409 1.573736,0 2.856842,-3.08346 2.856842,-6.86409"
       style="fill:#a02c2c;fill-opacity:1;fill-rule:evenodd;stroke:none;stroke-width:0.0541248"
       id="path30508"
       inkscape:export-filename="D:\Projects\DevoCular\static\assets\images\logo\text1533.png"
       inkscape:export-xdpi="96"
       inkscape:export-ydpi="96" />
    <path
       d="m 14.29672,154.35423 c 0,-3.17116 -1.010846,-5.75833 -2.250146,-5.75833 -1.239298,0 -2.2492028,2.58717 -2.2492028,5.75833 0,3.17177 1.0099048,5.75832 2.2492028,5.75832 1.2393,0 2.250146,-2.58655 2.250146,-5.75832"
       style="fill:#800000;fill-opacity:1;fill-rule:evenodd;stroke:none;stroke-width:0.0541248"
       id="path30510"
       inkscape:export-filename="D:\Projects\DevoCular\static\assets\images\logo\text1533.png"
       inkscape:export-xdpi="96"
       inkscape:export-ydpi="96" />
    <text
       xml:space="preserve"
       style="font-style:normal;font-variant:normal;font-weight:normal;font-stretch:normal;font-size:28.7117px;line-height:1.25;font-family:'Eras Bold ITC';-inkscape-font-specification:'Eras Bold ITC, Normal';font-variant-ligatures:normal;font-variant-caps:normal;font-variant-numeric:normal;font-variant-east-asian:normal;fill:#333333;stroke-width:0.717794"
       x="38.539116"
       y="160.20326"
       id="text32774"
       inkscape:export-filename="D:\Projects\DevoCular\static\assets\images\logo\text1533.png"
       inkscape:export-xdpi="96"
       inkscape:export-ydpi="96"><tspan
         sodipodi:role="line"
         id="tspan32772"
         style="font-style:normal;font-variant:normal;font-weight:normal;font-stretch:normal;font-size:28.7117px;font-family:'Eras Bold ITC';-inkscape-font-specification:'Eras Bold ITC, Normal';font-variant-ligatures:normal;font-variant-caps:normal;font-variant-numeric:normal;font-variant-east-asian:normal;fill:#333333;stroke-width:0.717794"
         x="38.539116"
         y="160.20326"><tspan
   style="fill:#aa0000"
   id="tspan46608">ev</tspan>ocular</tspan></text>
  </g>
</svg>
